<?xml version="1.0" standalone="no"?><!DOCTYPE svg PUBLIC "-//W3C//DTD SVG 1.1//EN" "http://www.w3.org/Graphics/SVG/1.1/DTD/svg11.dtd"><svg t="1528088051003" class="icon" style="" viewBox="0 0 1027 1024" version="1.1" xmlns="http://www.w3.org/2000/svg" p-id="2879" xmlns:xlink="http://www.w3.org/1999/xlink" width="128.375" height="128"><defs><style type="text/css"></style></defs><path d="M435.2 352h57.6v64h-57.6zM787.2 352h57.6v64h-57.6z" fill="" p-id="2880"></path><path d="M256 1024h480c160 0 288-128 288-288V416c0-9.6 3.2-22.4 3.2-32 0-211.2-172.8-384-384-384S256 172.8 256 384c0 9.6 0 22.4 3.2 32H256v160c0 124.8-99.2 224-224 224H0v224h256z m86.4-755.2h121.6c80 0 144 64 144 144V576h64v-163.2c0-80 64-144 144-144h121.6c64 166.4-19.2 348.8-182.4 412.8s-348.8-19.2-412.8-182.4c-28.8-73.6-28.8-156.8 0-230.4zM640 64c105.6 0 204.8 54.4 265.6 140.8h-89.6c-70.4 0-137.6 35.2-176 96-38.4-60.8-105.6-96-176-96h-89.6C435.2 118.4 534.4 64 640 64zM64 860.8c137.6-16 246.4-128 256-268.8 115.2 176 352 227.2 531.2 112 44.8-28.8 80-67.2 108.8-108.8V736c0 124.8-99.2 224-224 224h-262.4c3.2-9.6 6.4-22.4 6.4-32v-160h-64v160c0 16-12.8 32-32 32H64v-99.2z" fill="" p-id="2881"></path></svg>